# xmcd
#
# Track frame offsets: 
#        150
#        19866
#        41101
#        59715
#        86973
#        108624
#        128251
#        149834
#        172418
#        191399
#
# Disc length: 2780 seconds
#
# Revision: 0
# Processed by: cddbd v1.5.2PL0 Copyright (c) Steve Scherf et al.
# Submitted via: ExactAudioCopy v1.0b4
#
DISCID=9b0ada0a
DTITLE=Delta Blues Band - Stonewashed
DYEAR=2013
DGENRE=Blues
TTITLE0=Sweet Magnolia Breeze
TTITLE1=Stomach Ache
TTITLE2=Rock Me Baby
TTITLE3=Bad News
TTITLE4=New Paranoia Blues
TTITLE5=Forstads Blues
TTITLE6=Wang Dang Doodle ft. Miriam Mandipira
TTITLE7=Ragged And Dirty
TTITLE8=Can't Be Satisfied
TTITLE9=Walking Blues
EXTD=
EXTT0=
EXTT1=
EXTT2=
EXTT3=
EXTT4=
EXTT5=
EXTT6=
EXTT7=
EXTT8=
EXTT9=
PLAYORDER=
